<svg width="370" height="242" viewBox="0 0 370 242" fill="none" xmlns="http://www.w3.org/2000/svg">
<g clip-path="url(#clip0_168_17)">
<path d="M97.8981 87.8322C91.6261 87.8322 85.866 86.9042 80.618 85.0482C75.434 83.1922 71.242 80.4722 68.042 76.8882C64.842 73.2402 63.0821 68.7602 62.7621 63.4482C62.6341 61.2722 62.986 58.8722 63.818 56.2482C64.65 53.6242 65.8021 51.0322 67.2741 48.4722C68.8101 45.8482 70.6021 43.5122 72.6501 41.4642C74.7621 39.3522 77.0021 37.7522 79.3701 36.6642C79.5621 36.5362 79.8501 36.4402 80.2341 36.3762C80.6821 36.3122 81.002 36.2802 81.194 36.2802C81.578 36.2802 81.77 36.3762 81.77 36.5682C81.77 36.8882 81.2901 37.4002 80.3301 38.1042C77.6421 40.2162 75.4341 42.6482 73.7061 45.4002C71.9141 48.1522 70.5701 51.0962 69.6741 54.2322C68.7781 57.3682 68.3301 60.5362 68.3301 63.7362C68.3301 67.5122 69.1301 70.7762 70.7301 73.5282C72.3941 76.2162 74.602 78.4242 77.354 80.1522C80.106 81.9442 83.2421 83.2562 86.7621 84.0882C90.2821 84.9202 93.9621 85.3362 97.8021 85.3362C102.09 85.3362 106.314 84.8562 110.474 83.8962C114.698 82.9362 118.538 81.5602 121.994 79.7682C127.306 76.9522 131.498 73.4642 134.57 69.3042C137.706 65.1442 139.274 61.0162 139.274 56.9202C139.274 54.7442 138.794 52.6642 137.834 50.6802C136.938 48.6962 135.466 46.9042 133.418 45.3042C131.882 44.0882 129.994 42.9362 127.754 41.8482C125.578 40.7602 123.242 39.7042 120.746 38.6802C118.314 37.6562 115.914 36.6322 113.546 35.6082C111.178 34.5202 109.098 33.3682 107.306 32.1522C104.746 30.4242 102.858 28.5682 101.642 26.5842C100.49 24.6002 99.9141 22.6162 99.9141 20.6322C99.9141 18.2642 100.586 15.9602 101.93 13.7202C103.338 11.4802 105.226 9.46417 107.594 7.67217C110.026 5.81617 112.746 4.37617 115.754 3.35217C118.378 2.45617 121.226 1.75217 124.298 1.24016C127.434 0.728167 130.506 0.472168 133.514 0.472168C136.01 0.472168 138.378 0.664168 140.618 1.04817C142.922 1.36817 144.938 1.97617 146.666 2.87217C148.842 3.89617 150.506 5.27217 151.658 7.00016C152.81 8.66417 153.386 10.4242 153.386 12.2802C153.386 14.8402 152.234 17.0802 149.93 19.0002C149.098 19.6402 148.17 20.2482 147.146 20.8242C146.122 21.3362 144.906 21.7842 143.498 22.1682C143.242 22.2322 142.954 22.2642 142.634 22.2642C141.866 22.2642 141.482 22.0402 141.482 21.5922C141.482 21.3362 141.674 21.0802 142.058 20.8242C142.506 20.5042 143.146 20.3122 143.978 20.2482C145.898 19.9922 147.338 19.2562 148.298 18.0402C149.322 16.8242 149.834 15.4162 149.834 13.8162C149.834 12.1522 149.258 10.5202 148.106 8.92017C147.018 7.25617 145.322 5.88017 143.018 4.79216C140.714 3.64017 137.77 3.06417 134.186 3.06417C132.138 3.06417 129.866 3.28817 127.37 3.73617C124.938 4.18417 122.282 4.92017 119.402 5.94417C115.882 7.16017 112.938 8.95217 110.57 11.3202C108.266 13.6882 107.114 16.2162 107.114 18.9042C107.114 20.5682 107.658 22.2642 108.746 23.9922C109.898 25.6562 111.722 27.2562 114.218 28.7922C116.33 30.0722 118.73 31.3522 121.418 32.6322C124.106 33.8482 126.826 35.0962 129.578 36.3762C132.33 37.5922 134.826 38.9042 137.066 40.3122C140.586 42.4882 143.114 44.8242 144.65 47.3202C146.186 49.8162 146.954 52.3762 146.954 55.0002C146.954 58.0722 146.026 61.1762 144.17 64.3122C142.378 67.3842 140.01 70.2962 137.066 73.0482C134.122 75.7362 130.89 78.1362 127.37 80.2482C123.274 82.6802 118.634 84.5362 113.45 85.8162C108.33 87.1602 103.146 87.8322 97.8981 87.8322ZM182.837 79.2562C182.325 79.2562 181.856 79.2135 181.429 79.1282C181.088 79.1282 180.618 79.0855 180.021 79.0002C177.888 78.5735 176.394 77.4215 175.541 75.5442C174.773 73.5815 174.389 71.4909 174.389 69.2722C174.389 67.9069 174.474 66.5842 174.645 65.3042C174.901 63.9389 175.2 62.7442 175.541 61.7202C174.773 63.0855 173.792 64.7495 172.597 66.7122C171.402 68.5895 170.037 70.4669 168.501 72.3442C166.965 74.2215 165.344 75.8002 163.637 77.0802C161.93 78.3602 160.181 79.0002 158.389 79.0002C156.597 79.0002 154.933 78.4882 153.397 77.4642C151.861 76.4402 150.88 74.9895 150.453 73.1122C150.368 72.6855 150.282 72.3015 150.197 71.9602C150.197 71.5335 150.197 71.1495 150.197 70.8082C150.197 68.5895 150.794 66.3282 151.989 64.0242C153.184 61.7202 154.592 58.8615 156.213 55.4482C155.786 55.4482 155.402 55.4055 155.061 55.3202C154.805 55.2349 154.677 54.8935 154.677 54.2962C156.64 49.8589 158.304 46.2749 159.669 43.5442C161.12 40.7282 162.186 38.7229 162.869 37.5282C163.978 35.6509 165.728 34.7122 168.117 34.7122H176.053C174.602 35.8215 173.28 37.0589 172.085 38.4242C170.976 39.7042 169.568 42.0935 167.861 45.5922C167.861 45.5922 167.562 46.1895 166.965 47.3842C166.368 48.5789 165.6 50.0722 164.661 51.8642C163.808 53.6562 162.912 55.4909 161.973 57.3682C161.12 59.2455 160.394 60.8669 159.797 62.2322C158.944 64.1095 158.304 65.8589 157.877 67.4802C157.45 69.1015 157.237 70.5095 157.237 71.7042C157.237 74.6909 158.218 76.1842 160.181 76.1842C161.546 76.1842 163.082 75.3309 164.789 73.6242C166.752 71.7469 168.757 69.1442 170.805 65.8162C172.938 62.4029 174.986 58.8189 176.949 55.0642C178.912 51.3095 180.661 47.8535 182.197 44.6962C183.733 41.4535 184.885 39.0642 185.653 37.5282C186.08 36.5895 186.634 35.9069 187.317 35.4802C188.085 34.9682 189.152 34.7122 190.517 34.7122H198.325C197.813 35.2242 197.045 35.7789 196.021 36.3762C195.082 36.9735 194.144 38.0402 193.205 39.5762C192.01 41.6242 190.944 43.5442 190.005 45.3362C189.066 47.0429 187.786 49.6455 186.165 53.1442C185.824 53.9122 185.141 55.4055 184.117 57.6242C183.178 59.8429 182.282 62.2749 181.429 64.9202C180.576 67.5655 180.149 69.9549 180.149 72.0882C180.149 73.4535 180.448 74.5629 181.045 75.4162C181.642 76.2695 182.624 76.6962 183.989 76.6962C186.378 76.6962 188.64 75.7149 190.773 73.7522C192.992 71.7895 194.954 69.4002 196.661 66.5842C198.453 63.7682 199.904 61.0375 201.013 58.3922C200.928 57.7095 200.8 56.7282 200.629 55.4482C200.544 54.0829 200.501 52.9309 200.501 51.9922C200.501 46.4455 201.354 41.7522 203.061 37.9122C204.853 33.9869 207.2 32.0242 210.101 32.0242C211.722 32.0242 212.533 32.7495 212.533 34.2002C212.533 34.4562 212.234 35.4802 211.637 37.2722C211.125 38.9789 210.4 41.1122 209.461 43.6722C208.608 46.2322 207.626 48.9202 206.517 51.7362C205.408 54.5522 204.298 57.1975 203.189 59.6722C203.445 61.1229 204.042 62.3175 204.981 63.2562C205.92 64.1949 207.114 64.6642 208.565 64.6642C210.272 64.6642 211.85 63.8962 213.301 62.3602C214.837 60.7389 216.416 58.0509 218.037 54.2962C219.061 54.2962 219.573 54.6802 219.573 55.4482C218.208 58.8615 216.544 61.5922 214.581 63.6402C212.704 65.6882 210.57 66.7122 208.181 66.7122C205.28 66.7122 203.189 65.2189 201.909 62.2322C199.605 66.8402 196.832 70.8509 193.589 74.2642C190.432 77.5922 186.848 79.2562 182.837 79.2562ZM227.268 79.5122C224.111 79.5122 221.252 78.4882 218.692 76.4402C216.217 74.3922 214.98 71.2775 214.98 67.0962C214.98 63.5975 215.748 59.8855 217.284 55.9602C218.905 52.0349 220.996 48.3655 223.556 44.9522C226.201 41.4535 229.103 38.6375 232.26 36.5042C235.503 34.2855 238.745 33.1762 241.988 33.1762C243.609 33.1762 245.188 33.6455 246.724 34.5842C248.26 35.5229 249.028 37.1442 249.028 39.4482C249.028 41.5815 248.217 43.9282 246.596 46.4882C244.975 49.0482 242.671 51.4375 239.684 53.6562C238.404 54.5949 236.783 55.4909 234.82 56.3442C232.857 57.1975 230.895 57.9229 228.932 58.5202C226.969 59.0322 225.348 59.2882 224.068 59.2882C223.641 60.3122 223.215 61.6775 222.788 63.3842C222.447 65.0909 222.276 66.8402 222.276 68.6322C222.276 70.7655 222.703 72.6855 223.556 74.3922C224.409 76.0989 225.988 76.9522 228.292 76.9522C231.108 76.9522 233.711 76.1415 236.1 74.5202C238.575 72.8989 240.751 70.8509 242.628 68.3762C244.591 65.9015 246.255 63.3842 247.62 60.8242C248.985 58.2642 250.052 56.0882 250.82 54.2962C251.844 54.2962 252.356 54.6802 252.356 55.4482C251.247 57.8375 249.967 60.4402 248.516 63.2562C247.151 66.0722 245.487 68.7175 243.524 71.1922C241.647 73.5815 239.343 75.5869 236.612 77.2082C233.967 78.7442 230.852 79.5122 227.268 79.5122ZM224.964 56.9842C226.159 56.9842 228.164 56.5575 230.98 55.7042C233.796 54.7655 236.356 53.3149 238.66 51.3522C240.879 49.3895 242.585 47.2562 243.78 44.9522C244.975 42.5629 245.572 40.5575 245.572 38.9362C245.572 37.0589 244.889 36.1202 243.524 36.1202C242.5 36.1202 241.092 36.8029 239.3 38.1682C237.508 39.5335 235.289 41.8375 232.644 45.0802C231.023 47.1282 229.487 49.3469 228.036 51.7362C226.585 54.1255 225.561 55.8749 224.964 56.9842ZM260.018 79.5122C256.861 79.5122 254.002 78.4882 251.442 76.4402C248.967 74.3922 247.73 71.2775 247.73 67.0962C247.73 63.5975 248.498 59.8855 250.034 55.9602C251.655 52.0349 253.746 48.3655 256.306 44.9522C258.951 41.4535 261.853 38.6375 265.01 36.5042C268.253 34.2855 271.495 33.1762 274.738 33.1762C276.359 33.1762 277.938 33.6455 279.474 34.5842C281.01 35.5229 281.778 37.1442 281.778 39.4482C281.778 41.5815 280.967 43.9282 279.346 46.4882C277.725 49.0482 275.421 51.4375 272.434 53.6562C271.154 54.5949 269.533 55.4909 267.57 56.3442C265.607 57.1975 263.645 57.9229 261.682 58.5202C259.719 59.0322 258.098 59.2882 256.818 59.2882C256.391 60.3122 255.965 61.6775 255.538 63.3842C255.197 65.0909 255.026 66.8402 255.026 68.6322C255.026 70.7655 255.453 72.6855 256.306 74.3922C257.159 76.0989 258.738 76.9522 261.042 76.9522C263.858 76.9522 266.461 76.1415 268.85 74.5202C271.325 72.8989 273.501 70.8509 275.378 68.3762C277.341 65.9015 279.005 63.3842 280.37 60.8242C281.735 58.2642 282.802 56.0882 283.57 54.2962C284.594 54.2962 285.106 54.6802 285.106 55.4482C283.997 57.8375 282.717 60.4402 281.266 63.2562C279.901 66.0722 278.237 68.7175 276.274 71.1922C274.397 73.5815 272.093 75.5869 269.362 77.2082C266.717 78.7442 263.602 79.5122 260.018 79.5122ZM257.714 56.9842C258.909 56.9842 260.914 56.5575 263.73 55.7042C266.546 54.7655 269.106 53.3149 271.41 51.3522C273.629 49.3895 275.335 47.2562 276.53 44.9522C277.725 42.5629 278.322 40.5575 278.322 38.9362C278.322 37.0589 277.639 36.1202 276.274 36.1202C275.25 36.1202 273.842 36.8029 272.05 38.1682C270.258 39.5335 268.039 41.8375 265.394 45.0802C263.773 47.1282 262.237 49.3469 260.786 51.7362C259.335 54.1255 258.311 55.8749 257.714 56.9842ZM310.048 11.4162C308.939 13.0375 307.701 15.0855 306.336 17.5602C304.971 20.0349 303.691 22.4242 302.496 24.7282C301.387 27.0322 300.533 28.7815 299.936 29.9762H311.712C311.712 30.3175 311.541 30.8722 311.2 31.6402C310.944 32.4082 310.389 32.9629 309.536 33.3042H298.4C297.376 35.6082 296.181 38.3815 294.816 41.6242C293.536 44.8669 292.256 48.2375 290.976 51.7362C289.781 55.2349 288.757 58.5202 287.904 61.5922C287.136 64.5789 286.752 67.0109 286.752 68.8882C286.752 71.4482 287.093 73.3682 287.776 74.6482C288.459 75.8429 289.696 76.4402 291.488 76.4402C293.792 76.4402 296.011 75.3309 298.144 73.1122C300.277 70.8082 302.283 67.9495 304.16 64.5362C306.123 61.1229 307.829 57.7095 309.28 54.2962C310.304 54.2962 310.816 54.6802 310.816 55.4482C309.877 57.7522 308.725 60.2695 307.36 63.0002C305.995 65.7309 304.416 68.3762 302.624 70.9362C300.917 73.4109 298.955 75.4589 296.736 77.0802C294.603 78.6162 292.213 79.3842 289.568 79.3842C285.984 79.3842 283.552 78.4029 282.272 76.4402C280.992 74.3922 280.352 71.7895 280.352 68.6322C280.352 66.3282 280.779 63.5549 281.632 60.3122C282.485 56.9842 283.509 53.5709 284.704 50.0722C285.984 46.5735 287.221 43.3309 288.416 40.3442C289.611 37.2722 290.549 34.9255 291.232 33.3042H283.04C283.04 32.6215 283.339 31.8962 283.936 31.1282C284.533 30.3602 285.173 29.9762 285.856 29.9762H292.64C293.323 28.6109 294.091 26.9042 294.944 24.8562C295.883 22.8082 297.12 20.5469 298.656 18.0722C299.936 16.0242 301.557 14.4029 303.52 13.2082C305.568 12.0135 307.744 11.4162 310.048 11.4162Z" fill="#F2E9DA"/>
<path d="M129.415 178.04C128.455 177.912 127.143 177.656 125.479 177.272C123.815 176.952 122.119 176.28 120.391 175.256C118.663 174.232 117.191 172.664 115.975 170.552C114.759 168.504 114.151 165.752 114.151 162.296C114.151 158.328 114.951 153.976 116.551 149.24C118.215 144.44 120.231 139.448 122.599 134.264C124.967 129.08 127.239 123.96 129.415 118.904C131.143 114.872 132.007 111.8 132.007 109.688C132.007 107.576 131.207 106.52 129.607 106.52C127.815 106.52 125.127 107.96 121.543 110.84C118.023 113.656 113.927 117.944 109.255 123.704C108.039 125.24 106.471 127.384 104.551 130.136C102.631 132.824 100.583 135.832 98.407 139.16C96.231 142.424 94.087 145.752 91.975 149.144C89.927 152.472 88.103 155.544 86.503 158.36C84.967 161.176 83.847 163.416 83.143 165.08C82.311 167.064 81.351 168.408 80.263 169.112C79.175 169.88 78.151 170.264 77.191 170.264C76.359 170.264 75.655 170.04 75.079 169.592C74.439 169.144 74.119 168.6 74.119 167.96C74.119 167.576 74.215 167.256 74.407 167C74.791 166.232 75.751 164.472 77.287 161.72C78.823 158.968 80.615 155.32 82.663 150.776C84.711 146.232 86.663 140.952 88.519 134.936C89.095 133.08 89.671 130.936 90.247 128.504C90.887 126.072 91.463 123.576 91.975 121.016C92.487 118.392 92.903 115.96 93.223 113.72C93.607 111.416 93.799 109.56 93.799 108.152C93.799 105.912 93.415 104.28 92.647 103.256C91.879 102.168 90.855 101.624 89.575 101.624C88.167 101.624 86.567 102.232 84.775 103.448C82.983 104.664 81.159 106.424 79.303 108.728C76.103 112.76 73.287 116.504 70.855 119.96C68.423 123.352 66.183 126.744 64.135 130.136C62.151 133.528 60.167 137.144 58.183 140.984C56.263 144.824 54.215 149.144 52.039 153.944C49.863 158.68 47.367 164.184 44.551 170.456C44.103 171.48 43.335 172.216 42.247 172.664C41.223 173.112 40.263 173.336 39.367 173.336C38.471 173.336 37.735 173.144 37.159 172.76C36.583 172.376 36.391 171.832 36.583 171.128C37.991 168.888 39.559 166.104 41.287 162.776C43.015 159.384 44.775 155.64 46.567 151.544C48.359 147.448 50.087 143.192 51.751 138.776C53.415 134.36 54.887 130.04 56.167 125.816C57.511 121.592 58.567 117.624 59.335 113.912C60.103 110.2 60.487 107.032 60.487 104.408C60.487 99.4798 59.431 95.9598 57.319 93.8478C55.271 91.7358 52.615 90.6798 49.351 90.6798C46.471 90.6798 43.303 91.3838 39.847 92.7918C36.391 94.1998 32.903 96.1198 29.383 98.5518C25.927 100.984 22.663 103.736 19.591 106.808C15.175 111.224 11.687 116.024 9.12703 121.208C6.63103 126.392 5.38303 131.64 5.38303 136.952C5.38303 140.536 6.05503 143.576 7.39903 146.072C8.74303 148.568 10.503 150.456 12.679 151.736C14.919 153.016 17.383 153.656 20.071 153.656C22.823 153.656 25.383 152.984 27.751 151.64C30.183 150.232 32.295 148.44 34.087 146.264C35.943 144.024 37.383 141.688 38.407 139.256C39.431 136.76 39.943 134.424 39.943 132.248C39.943 130.392 39.431 128.856 38.407 127.64C37.383 126.424 35.751 125.816 33.511 125.816C33.255 125.816 32.967 125.848 32.647 125.912C32.391 125.912 32.103 125.912 31.783 125.912H31.495C31.047 125.912 30.631 125.848 30.247 125.72C29.863 125.528 29.671 125.304 29.671 125.048C29.671 124.792 29.991 124.504 30.631 124.184C31.335 123.864 32.583 123.704 34.375 123.704C37.255 123.704 39.399 124.568 40.807 126.296C42.279 127.96 43.015 130.104 43.015 132.728C43.015 135.288 42.343 137.912 40.999 140.6C39.719 143.288 37.959 145.784 35.719 148.088C33.479 150.392 30.951 152.248 28.135 153.656C25.383 155.064 22.535 155.768 19.591 155.768C16.135 155.768 12.903 154.968 9.89503 153.368C6.95103 151.768 4.58303 149.464 2.79103 146.456C0.999027 143.384 0.103027 139.736 0.103027 135.512C0.103027 131.48 0.935027 127.512 2.59903 123.608C4.26303 119.64 6.40703 115.928 9.03103 112.472C11.719 108.952 14.567 105.848 17.575 103.16C20.903 100.152 24.423 97.5918 28.135 95.4798C31.847 93.3038 35.527 91.6398 39.175 90.4878C42.887 89.2718 46.343 88.6638 49.543 88.6638C54.279 88.6638 58.183 90.0718 61.255 92.8878C64.391 95.7038 65.959 100.248 65.959 106.52C65.959 109.08 65.607 112.024 64.903 115.352C64.199 118.616 63.367 121.912 62.407 125.24C61.447 128.504 60.519 131.416 59.623 133.976H59.815C62.119 129.816 64.167 126.264 65.959 123.32C67.815 120.312 69.671 117.528 71.527 114.968C73.383 112.408 75.463 109.72 77.767 106.904C79.751 104.536 82.023 102.648 84.583 101.24C87.143 99.8318 89.607 99.1278 91.975 99.1278C94.087 99.1278 95.879 99.8318 97.351 101.24C98.823 102.648 99.559 105.048 99.559 108.44C99.559 108.824 99.559 109.144 99.559 109.4C99.559 109.656 99.527 110.04 99.463 110.552C98.887 116.696 97.671 122.744 95.815 128.696C93.959 134.584 92.039 140.536 90.055 146.552C92.039 143.48 94.727 139.576 98.119 134.84C101.511 130.104 105.223 125.208 109.255 120.152C114.183 114.008 118.759 109.4 122.983 106.328C127.207 103.256 130.695 101.72 133.447 101.72C136.903 101.72 138.631 103.832 138.631 108.056C138.631 109.656 138.311 111.576 137.671 113.816C137.095 116.056 136.167 118.424 134.887 120.92C133.479 123.736 131.911 127 130.183 130.712C128.519 134.36 126.919 138.2 125.383 142.232C123.847 146.264 122.567 150.232 121.543 154.136C120.583 157.976 120.103 161.528 120.103 164.792C120.103 168.312 120.903 171.128 122.503 173.24C124.167 175.416 127.015 176.504 131.047 176.504H131.623C132.583 176.504 133.063 176.696 133.063 177.08C133.063 177.336 132.743 177.592 132.103 177.848C131.463 178.104 130.567 178.168 129.415 178.04ZM161.953 167.384C159.99 167.384 158.241 166.829 156.705 165.72C155.254 164.611 154.529 162.349 154.529 158.936C154.529 157.485 154.614 156.12 154.785 154.84C155.041 153.56 155.34 152.195 155.681 150.744C154.913 152.024 153.846 153.603 152.481 155.48C151.116 157.357 149.58 159.192 147.873 160.984C146.252 162.776 144.545 164.269 142.753 165.464C141.046 166.659 139.425 167.256 137.889 167.256C135.67 167.256 133.878 166.275 132.513 164.312C131.148 162.264 130.465 159.619 130.465 156.376C130.465 152.877 131.276 149.123 132.897 145.112C134.518 141.101 136.737 137.261 139.553 133.592C142.369 129.923 145.612 126.936 149.281 124.632C152.95 122.328 156.79 121.176 160.801 121.176C162.764 121.176 164.641 121.517 166.433 122.2C168.225 122.797 169.804 123.821 171.169 125.272C171.766 125.869 172.065 126.552 172.065 127.32C172.065 127.832 171.852 128.259 171.425 128.6C170.998 128.941 170.444 129.027 169.761 128.856C168.822 125.869 166.817 124.376 163.745 124.376C162.294 124.376 160.63 124.845 158.753 125.784C156.449 126.979 153.974 128.899 151.329 131.544C148.769 134.104 146.337 137.048 144.033 140.376C141.814 143.619 139.98 146.904 138.529 150.232C137.078 153.56 136.353 156.589 136.353 159.32C136.353 162.136 137.42 163.544 139.553 163.544C141.43 163.544 143.35 162.648 145.313 160.856C147.361 159.064 149.281 156.845 151.073 154.2C152.95 151.469 154.657 148.781 156.193 146.136C157.729 143.491 158.924 141.357 159.777 139.736C161.057 137.432 162.252 135.512 163.361 133.976C164.47 132.44 166.049 131.672 168.097 131.672C169.036 131.672 169.974 131.8 170.913 132.056C171.852 132.312 172.833 132.355 173.857 132.184C171.297 134.744 169.036 137.773 167.073 141.272C165.196 144.771 163.745 148.227 162.721 151.64C161.697 154.968 161.185 157.784 161.185 160.088C161.185 162.648 162.038 163.928 163.745 163.928C165.11 163.928 166.561 163.16 168.097 161.624C169.718 160.088 171.254 158.168 172.705 155.864C174.241 153.475 175.649 151.085 176.929 148.696C178.209 146.221 179.233 144.088 180.001 142.296C180.428 142.296 180.769 142.339 181.025 142.424C181.366 142.509 181.537 142.851 181.537 143.448C181.452 143.789 181.281 144.173 181.025 144.6C180.854 144.941 180.556 145.581 180.129 146.52C179.446 147.885 178.508 149.72 177.313 152.024C176.118 154.328 174.71 156.675 173.089 159.064C171.468 161.368 169.718 163.331 167.841 164.952C165.964 166.573 164.001 167.384 161.953 167.384ZM162.388 207.832C157.951 207.832 154.793 206.936 152.916 205.144C151.039 203.437 150.1 201.389 150.1 199C150.1 195.331 151.465 191.917 154.196 188.76C156.841 185.688 160.127 183.213 164.052 181.336C168.489 179.288 173.524 177.624 179.156 176.344C184.873 175.064 190.335 173.656 195.54 172.12C197.161 169.304 198.655 166.104 200.02 162.52C201.385 158.851 202.623 155.309 203.732 151.896C204.841 148.397 205.737 145.539 206.42 143.32C205.396 145.197 204.073 147.501 202.452 150.232C200.916 152.877 199.167 155.48 197.204 158.04C195.241 160.6 193.108 162.733 190.804 164.44C188.585 166.147 186.239 167 183.764 167C182.825 167 181.673 166.787 180.308 166.36C179.028 165.933 177.876 165.165 176.852 164.056C175.913 162.861 175.444 161.112 175.444 158.808C175.444 156.589 176.127 154.157 177.492 151.512C178.857 148.781 180.223 146.093 181.588 143.448C181.161 143.448 180.777 143.405 180.436 143.32C180.18 143.235 180.052 142.893 180.052 142.296C180.308 141.784 180.82 140.675 181.588 138.968C182.356 137.261 183.209 135.384 184.148 133.336C185.172 131.288 186.068 129.496 186.836 127.96C187.775 125.997 188.799 124.632 189.908 123.864C191.103 123.096 192.255 122.712 193.364 122.712H201.3C200.703 123.224 199.935 123.821 198.996 124.504C198.143 125.101 197.332 126.04 196.564 127.32C194.26 131.245 192.255 135.043 190.548 138.712C188.841 142.296 187.007 146.136 185.044 150.232C184.105 152.195 183.423 153.987 182.996 155.608C182.569 157.229 182.356 158.637 182.356 159.832C182.356 162.648 183.295 164.056 185.172 164.056C187.22 164.056 189.695 162.392 192.596 159.064C194.985 156.248 197.375 152.92 199.764 149.08C202.239 145.155 204.585 141.144 206.804 137.048C209.108 132.867 211.113 129.027 212.82 125.528C213.759 123.651 215.423 122.712 217.812 122.712H224.852C222.377 124.419 220.457 126.637 219.092 129.368C217.812 132.099 216.361 135.597 214.74 139.864C212.948 144.557 211.241 149.421 209.62 154.456C207.999 159.491 206.207 164.653 204.244 169.944C208.425 168.493 211.924 166.616 214.74 164.312C217.556 162.008 220.031 159.064 222.164 155.48C224.383 151.811 226.601 147.416 228.82 142.296C229.844 142.296 230.356 142.68 230.356 143.448C228.479 147.373 226.772 150.829 225.236 153.816C223.7 156.803 221.993 159.448 220.116 161.752C218.239 163.971 215.892 166.019 213.076 167.896C210.26 169.859 206.633 171.736 202.196 173.528C200.148 177.197 197.801 180.995 195.156 184.92C192.596 188.931 189.652 192.643 186.324 196.056C183.081 199.555 179.455 202.371 175.444 204.504C171.519 206.723 167.167 207.832 162.388 207.832ZM159.316 205.272C162.132 205.272 165.033 204.419 168.02 202.712C171.007 201.005 173.908 198.829 176.724 196.184C179.54 193.624 182.1 190.979 184.404 188.248C186.793 185.603 188.713 183.256 190.164 181.208C190.591 180.611 191.06 179.843 191.572 178.904C192.084 177.965 192.596 177.069 193.108 176.216C188.927 177.325 184.319 178.52 179.284 179.8C174.335 181.165 170.025 182.659 166.356 184.28C162.26 185.987 159.06 188.419 156.756 191.576C154.367 194.733 153.172 197.549 153.172 200.024C153.172 201.56 153.684 202.797 154.708 203.736C155.647 204.76 157.183 205.272 159.316 205.272ZM256.578 167.384C254.615 167.384 252.866 166.829 251.33 165.72C249.879 164.611 249.154 162.349 249.154 158.936C249.154 157.485 249.239 156.12 249.41 154.84C249.666 153.56 249.965 152.195 250.306 150.744C249.538 152.024 248.471 153.603 247.106 155.48C245.741 157.357 244.205 159.192 242.498 160.984C240.877 162.776 239.17 164.269 237.378 165.464C235.671 166.659 234.05 167.256 232.514 167.256C230.295 167.256 228.503 166.275 227.138 164.312C225.773 162.264 225.09 159.619 225.09 156.376C225.09 152.877 225.901 149.123 227.522 145.112C229.143 141.101 231.362 137.261 234.178 133.592C236.994 129.923 240.237 126.936 243.906 124.632C247.575 122.328 251.415 121.176 255.426 121.176C257.389 121.176 259.266 121.517 261.058 122.2C262.85 122.797 264.429 123.821 265.794 125.272C266.391 125.869 266.69 126.552 266.69 127.32C266.69 127.832 266.477 128.259 266.05 128.6C265.623 128.941 265.069 129.027 264.386 128.856C263.447 125.869 261.442 124.376 258.37 124.376C256.919 124.376 255.255 124.845 253.378 125.784C251.074 126.979 248.599 128.899 245.954 131.544C243.394 134.104 240.962 137.048 238.658 140.376C236.439 143.619 234.605 146.904 233.154 150.232C231.703 153.56 230.978 156.589 230.978 159.32C230.978 162.136 232.045 163.544 234.178 163.544C236.055 163.544 237.975 162.648 239.938 160.856C241.986 159.064 243.906 156.845 245.698 154.2C247.575 151.469 249.282 148.781 250.818 146.136C252.354 143.491 253.549 141.357 254.402 139.736C255.682 137.432 256.877 135.512 257.986 133.976C259.095 132.44 260.674 131.672 262.722 131.672C263.661 131.672 264.599 131.8 265.538 132.056C266.477 132.312 267.458 132.355 268.482 132.184C265.922 134.744 263.661 137.773 261.698 141.272C259.821 144.771 258.37 148.227 257.346 151.64C256.322 154.968 255.81 157.784 255.81 160.088C255.81 162.648 256.663 163.928 258.37 163.928C259.735 163.928 261.186 163.16 262.722 161.624C264.343 160.088 265.879 158.168 267.33 155.864C268.866 153.475 270.274 151.085 271.554 148.696C272.834 146.221 273.858 144.088 274.626 142.296C275.053 142.296 275.394 142.339 275.65 142.424C275.991 142.509 276.162 142.851 276.162 143.448C276.077 143.789 275.906 144.173 275.65 144.6C275.479 144.941 275.181 145.581 274.754 146.52C274.071 147.885 273.133 149.72 271.938 152.024C270.743 154.328 269.335 156.675 267.714 159.064C266.093 161.368 264.343 163.331 262.466 164.952C260.589 166.573 258.626 167.384 256.578 167.384ZM303.989 167C301.088 167 298.954 166.019 297.589 164.056C296.224 162.093 295.541 159.789 295.541 157.144C295.541 156.376 295.584 155.608 295.669 154.84C295.754 153.987 295.925 153.133 296.181 152.28C294.986 154.157 293.578 156.248 291.957 158.552C290.421 160.771 288.629 162.733 286.581 164.44C284.618 166.061 282.4 166.872 279.925 166.872C278.816 166.872 277.536 166.616 276.085 166.104C274.72 165.592 273.482 164.611 272.373 163.16C271.349 161.709 270.837 159.576 270.837 156.76C270.837 153.091 271.648 149.208 273.269 145.112C274.89 141.016 277.109 137.176 279.925 133.592C282.741 129.923 285.941 126.979 289.525 124.76C293.109 122.456 296.821 121.304 300.661 121.304C303.733 121.304 306.634 122.115 309.365 123.736C310.645 121.347 312.01 118.701 313.461 115.8C314.912 112.813 316.362 109.869 317.813 106.968C319.264 104.067 320.544 101.421 321.653 99.0318C322.762 96.5571 323.616 94.6798 324.213 93.3998C325.493 90.4131 326.688 88.5358 327.797 87.7678C328.992 86.9145 330.4 86.4878 332.021 86.4878C332.96 86.4878 333.984 86.6158 335.093 86.8718C336.288 87.0425 337.44 87.0851 338.549 86.9998C338.122 87.4265 337.141 88.8345 335.605 91.2238C334.069 93.6131 332.192 96.7278 329.973 100.568C327.754 104.323 325.365 108.461 322.805 112.984C320.33 117.507 317.856 122.157 315.381 126.936C312.992 131.629 310.773 136.152 308.725 140.504C306.677 144.856 305.056 148.696 303.861 152.024C302.666 155.352 302.069 157.869 302.069 159.576C302.069 160.685 302.325 161.667 302.837 162.52C303.349 163.288 304.202 163.672 305.397 163.672C307.018 163.672 308.682 162.861 310.389 161.24C312.096 159.619 313.717 157.613 315.253 155.224C316.874 152.749 318.282 150.36 319.477 148.056C320.757 145.667 321.696 143.747 322.293 142.296C323.317 142.296 323.829 142.68 323.829 143.448C323.061 145.24 322.037 147.459 320.757 150.104C319.477 152.749 317.984 155.352 316.277 157.912C314.57 160.472 312.65 162.648 310.517 164.44C308.469 166.147 306.293 167 303.989 167ZM280.821 163.16C282.016 163.16 283.509 162.52 285.301 161.24C287.093 159.875 289.013 157.741 291.061 154.84C293.45 151.427 296.181 147.16 299.253 142.04C302.325 136.92 305.354 131.501 308.341 125.784C307.744 125.272 307.104 124.888 306.421 124.632C305.738 124.376 304.8 124.248 303.605 124.248C301.642 124.248 299.466 125.101 297.077 126.808C294.773 128.429 292.426 130.563 290.037 133.208C287.733 135.853 285.6 138.712 283.637 141.784C281.76 144.856 280.224 147.843 279.029 150.744C277.92 153.56 277.365 155.992 277.365 158.04C277.365 161.453 278.517 163.16 280.821 163.16ZM350.078 167.384C348.115 167.384 346.366 166.829 344.83 165.72C343.379 164.611 342.654 162.349 342.654 158.936C342.654 157.485 342.739 156.12 342.91 154.84C343.166 153.56 343.465 152.195 343.806 150.744C343.038 152.024 341.971 153.603 340.606 155.48C339.241 157.357 337.705 159.192 335.998 160.984C334.377 162.776 332.67 164.269 330.878 165.464C329.171 166.659 327.55 167.256 326.014 167.256C323.795 167.256 322.003 166.275 320.638 164.312C319.273 162.264 318.59 159.619 318.59 156.376C318.59 152.877 319.401 149.123 321.022 145.112C322.643 141.101 324.862 137.261 327.678 133.592C330.494 129.923 333.737 126.936 337.406 124.632C341.075 122.328 344.915 121.176 348.926 121.176C350.889 121.176 352.766 121.517 354.558 122.2C356.35 122.797 357.929 123.821 359.294 125.272C359.891 125.869 360.19 126.552 360.19 127.32C360.19 127.832 359.977 128.259 359.55 128.6C359.123 128.941 358.569 129.027 357.886 128.856C356.947 125.869 354.942 124.376 351.87 124.376C350.419 124.376 348.755 124.845 346.878 125.784C344.574 126.979 342.099 128.899 339.454 131.544C336.894 134.104 334.462 137.048 332.158 140.376C329.939 143.619 328.105 146.904 326.654 150.232C325.203 153.56 324.478 156.589 324.478 159.32C324.478 162.136 325.545 163.544 327.678 163.544C329.555 163.544 331.475 162.648 333.438 160.856C335.486 159.064 337.406 156.845 339.198 154.2C341.075 151.469 342.782 148.781 344.318 146.136C345.854 143.491 347.049 141.357 347.902 139.736C349.182 137.432 350.377 135.512 351.486 133.976C352.595 132.44 354.174 131.672 356.222 131.672C357.161 131.672 358.099 131.8 359.038 132.056C359.977 132.312 360.958 132.355 361.982 132.184C359.422 134.744 357.161 137.773 355.198 141.272C353.321 144.771 351.87 148.227 350.846 151.64C349.822 154.968 349.31 157.784 349.31 160.088C349.31 162.648 350.163 163.928 351.87 163.928C353.235 163.928 354.686 163.16 356.222 161.624C357.843 160.088 359.379 158.168 360.83 155.864C362.366 153.475 363.774 151.085 365.054 148.696C366.334 146.221 367.358 144.088 368.126 142.296C368.553 142.296 368.894 142.339 369.15 142.424C369.491 142.509 369.662 142.851 369.662 143.448C369.577 143.789 369.406 144.173 369.15 144.6C368.979 144.941 368.681 145.581 368.254 146.52C367.571 147.885 366.633 149.72 365.438 152.024C364.243 154.328 362.835 156.675 361.214 159.064C359.593 161.368 357.843 163.331 355.966 164.952C354.089 166.573 352.126 167.384 350.078 167.384Z" fill="#F2E9DA"/>
<path d="M141.117 215.56C142.37 215.56 143.637 215.667 144.917 215.88C146.223 216.067 147.263 216.32 148.037 216.64C148.277 216.72 148.423 216.827 148.477 216.96C148.557 217.067 148.61 217.267 148.637 217.56L149.157 223.12C149.157 223.2 149.09 223.253 148.957 223.28C148.823 223.307 148.73 223.267 148.677 223.16C147.93 220.973 146.863 219.307 145.477 218.16C144.09 216.987 142.423 216.4 140.477 216.4C138.663 216.4 137.037 216.893 135.597 217.88C134.183 218.84 133.063 220.227 132.237 222.04C131.437 223.853 131.037 225.973 131.037 228.4C131.037 230.853 131.45 233.013 132.277 234.88C133.13 236.72 134.29 238.147 135.757 239.16C137.25 240.147 138.957 240.64 140.877 240.64C142.717 240.64 144.263 240.147 145.517 239.16C146.77 238.147 147.957 236.493 149.077 234.2C149.103 234.12 149.183 234.093 149.317 234.12C149.45 234.147 149.517 234.2 149.517 234.28L148.917 239.24C148.863 239.56 148.81 239.773 148.757 239.88C148.703 239.96 148.557 240.053 148.317 240.16C145.863 241.04 143.383 241.48 140.877 241.48C138.023 241.48 135.463 240.947 133.197 239.88C130.957 238.787 129.197 237.267 127.917 235.32C126.637 233.373 125.997 231.16 125.997 228.68C125.997 226.147 126.65 223.893 127.957 221.92C129.29 219.92 131.103 218.36 133.397 217.24C135.717 216.12 138.29 215.56 141.117 215.56ZM163.503 230.72H175.023L175.303 231.84H162.903L163.503 230.72ZM184.743 240.52C184.877 240.52 184.943 240.6 184.943 240.76C184.943 240.92 184.877 241 184.743 241C184.21 241 183.383 240.973 182.263 240.92C181.09 240.867 180.25 240.84 179.743 240.84C179.077 240.84 178.263 240.867 177.303 240.92C176.397 240.973 175.677 241 175.143 241C175.037 241 174.983 240.92 174.983 240.76C174.983 240.6 175.037 240.52 175.143 240.52C175.837 240.52 176.33 240.453 176.623 240.32C176.943 240.16 177.103 239.893 177.103 239.52C177.103 239.067 176.837 238.307 176.303 237.24L168.183 221.2L170.143 217.76L162.183 235.32C161.837 236.093 161.663 236.813 161.663 237.48C161.663 238.44 161.997 239.187 162.663 239.72C163.357 240.253 164.277 240.52 165.423 240.52C165.557 240.52 165.623 240.6 165.623 240.76C165.623 240.92 165.557 241 165.423 241C164.943 241 164.25 240.973 163.343 240.92C162.33 240.867 161.45 240.84 160.703 240.84C159.983 240.84 159.117 240.867 158.103 240.92C157.197 240.973 156.463 241 155.903 241C155.797 241 155.743 240.92 155.743 240.76C155.743 240.6 155.797 240.52 155.903 240.52C156.65 240.52 157.277 240.373 157.783 240.08C158.29 239.76 158.797 239.213 159.303 238.44C159.81 237.64 160.41 236.467 161.103 234.92L169.783 215.84C169.837 215.76 169.957 215.72 170.143 215.72C170.357 215.72 170.477 215.76 170.503 215.84L180.503 235.52C181.437 237.413 182.21 238.72 182.823 239.44C183.437 240.16 184.077 240.52 184.743 240.52ZM193.616 219.24C193.616 218.44 193.536 217.853 193.376 217.48C193.243 217.107 192.976 216.853 192.576 216.72C192.203 216.56 191.603 216.48 190.776 216.48C190.696 216.48 190.656 216.4 190.656 216.24C190.656 216.08 190.696 216 190.776 216L192.896 216.04C194.123 216.093 195.096 216.12 195.816 216.12C196.616 216.12 197.629 216.093 198.856 216.04L200.896 216C200.976 216 201.016 216.08 201.016 216.24C201.016 216.4 200.976 216.48 200.896 216.48C200.069 216.48 199.456 216.56 199.056 216.72C198.683 216.88 198.416 217.16 198.256 217.56C198.123 217.933 198.056 218.52 198.056 219.32V237.76C198.056 238.587 198.123 239.187 198.256 239.56C198.389 239.933 198.643 240.187 199.016 240.32C199.416 240.453 200.043 240.52 200.896 240.52C201.003 240.52 201.056 240.6 201.056 240.76C201.056 240.92 201.003 241 200.896 241C200.016 241 199.323 240.987 198.816 240.96L195.816 240.92L192.856 240.96C192.323 240.987 191.603 241 190.696 241C190.643 241 190.616 240.92 190.616 240.76C190.616 240.6 190.643 240.52 190.696 240.52C191.549 240.52 192.176 240.453 192.576 240.32C192.976 240.187 193.243 239.933 193.376 239.56C193.536 239.16 193.616 238.56 193.616 237.76V219.24ZM198.696 227.8L201.896 224.72L208.016 232.96C209.749 235.44 211.043 237.2 211.896 238.24C212.776 239.253 213.483 239.893 214.016 240.16C214.549 240.4 215.229 240.52 216.056 240.52C216.136 240.52 216.176 240.6 216.176 240.76C216.176 240.92 216.136 241 216.056 241H211.576C211.149 241 210.789 241.013 210.496 241.04C210.203 241.067 209.963 241.08 209.776 241.08C209.349 241.08 208.976 240.987 208.656 240.8C208.363 240.587 207.989 240.213 207.536 239.68C207.109 239.147 206.336 238.12 205.216 236.6C205.083 236.413 204.923 236.213 204.736 236C204.576 235.76 204.389 235.493 204.176 235.2L198.696 227.8ZM205.576 220.12C206.349 219.347 206.736 218.64 206.736 218C206.736 217.52 206.523 217.147 206.096 216.88C205.669 216.613 205.069 216.48 204.296 216.48C204.216 216.48 204.176 216.4 204.176 216.24C204.176 216.08 204.216 216 204.296 216L206.176 216.04C207.349 216.093 208.443 216.12 209.456 216.12C210.549 216.12 211.683 216.093 212.856 216.04L214.656 216C214.736 216 214.776 216.08 214.776 216.24C214.776 216.4 214.736 216.48 214.656 216.48C213.429 216.48 212.083 216.84 210.616 217.56C209.149 218.253 207.816 219.187 206.616 220.36L196.336 230.8L195.256 230.68L205.576 220.12ZM222.147 241C222.067 241 222.027 240.92 222.027 240.76C222.027 240.6 222.067 240.52 222.147 240.52C223 240.52 223.614 240.453 223.987 240.32C224.387 240.187 224.654 239.933 224.787 239.56C224.92 239.16 224.987 238.56 224.987 237.76V219.24C224.987 218.44 224.92 217.853 224.787 217.48C224.654 217.107 224.387 216.853 223.987 216.72C223.587 216.56 222.974 216.48 222.147 216.48C222.067 216.48 222.027 216.4 222.027 216.24C222.027 216.08 222.067 216 222.147 216H239.107C239.374 216 239.507 216.12 239.507 216.36L239.587 221.68C239.587 221.733 239.507 221.773 239.347 221.8C239.214 221.827 239.134 221.8 239.107 221.72C238.68 220.173 237.96 219.027 236.947 218.28C235.934 217.533 234.6 217.16 232.947 217.16H231.747C230.947 217.16 230.36 217.333 229.987 217.68C229.614 218.027 229.427 218.56 229.427 219.28V237.6C229.427 238.373 229.574 238.947 229.867 239.32C230.16 239.693 230.627 239.88 231.267 239.88H232.587C234.667 239.88 236.334 239.453 237.587 238.6C238.84 237.747 239.76 236.427 240.347 234.64C240.347 234.587 240.4 234.56 240.507 234.56C240.587 234.56 240.654 234.587 240.707 234.64C240.787 234.667 240.827 234.693 240.827 234.72C240.56 236.8 240.427 238.693 240.427 240.4C240.427 240.613 240.387 240.773 240.307 240.88C240.227 240.96 240.067 241 239.827 241H222.147ZM237.587 232.08C237.587 230.987 237.16 230.133 236.307 229.52C235.48 228.88 234.28 228.56 232.707 228.56H227.307V227.44H232.747C234.294 227.44 235.48 227.173 236.307 226.64C237.134 226.107 237.547 225.36 237.547 224.4C237.547 224.32 237.614 224.28 237.747 224.28C237.907 224.28 237.987 224.32 237.987 224.4L237.947 228L237.987 229.92C238.04 230.827 238.067 231.547 238.067 232.08C238.067 232.133 237.987 232.16 237.827 232.16C237.667 232.16 237.587 232.133 237.587 232.08ZM254.337 220.04C254.337 221 254.577 221.853 255.057 222.6C255.564 223.347 256.177 224 256.897 224.56C257.617 225.12 258.591 225.8 259.817 226.6C261.151 227.453 262.217 228.2 263.017 228.84C263.817 229.48 264.497 230.267 265.057 231.2C265.617 232.107 265.897 233.16 265.897 234.36C265.897 235.747 265.524 236.987 264.777 238.08C264.031 239.147 262.991 239.987 261.657 240.6C260.351 241.187 258.884 241.48 257.257 241.48C256.084 241.48 254.831 241.32 253.497 241C252.191 240.653 251.311 240.28 250.857 239.88C250.724 239.773 250.617 239.68 250.537 239.6C250.484 239.493 250.457 239.333 250.457 239.12L250.337 232.76V232.72C250.337 232.613 250.404 232.56 250.537 232.56C250.671 232.533 250.751 232.573 250.777 232.68C251.577 234.307 252.271 235.627 252.857 236.64C253.471 237.653 254.231 238.547 255.137 239.32C256.071 240.093 257.124 240.48 258.297 240.48C259.364 240.48 260.244 240.2 260.937 239.64C261.631 239.053 261.977 238.067 261.977 236.68C261.977 235.507 261.711 234.48 261.177 233.6C260.671 232.72 260.044 231.973 259.297 231.36C258.551 230.747 257.524 230.013 256.217 229.16C254.937 228.333 253.937 227.627 253.217 227.04C252.524 226.453 251.924 225.747 251.417 224.92C250.911 224.093 250.657 223.12 250.657 222C250.657 220.587 251.057 219.4 251.857 218.44C252.684 217.453 253.737 216.733 255.017 216.28C256.297 215.8 257.644 215.56 259.057 215.56C259.991 215.56 260.937 215.653 261.897 215.84C262.857 216 263.631 216.2 264.217 216.44C264.457 216.547 264.617 216.667 264.697 216.8C264.777 216.907 264.817 217.053 264.817 217.24V223.12C264.817 223.2 264.751 223.267 264.617 223.32C264.484 223.347 264.404 223.32 264.377 223.24L264.057 222.48C263.391 220.8 262.604 219.373 261.697 218.2C260.817 217.027 259.577 216.44 257.977 216.44C256.911 216.44 256.031 216.747 255.337 217.36C254.671 217.973 254.337 218.867 254.337 220.04Z" fill="#F2E9DA"/>
</g>
<defs>
<clipPath id="clip0_168_17">
<rect width="370" height="242" fill="white"/>
</clipPath>
</defs>
</svg>
